HIERARCHY
ROOT ui
{
	 OFFSET 0 0 0
	 CHANNELS 3 XPosition YPosition Z Position
	 EndSite
	 {
	 OFFSET 0 -1 0
	 }
}
ROOT li
{
	 OFFSET 0 0 0
	 CHANNELS 3 XPosition YPosition Z Position
	 EndSite
	 {
	 OFFSET 0 -1 0
	 }
}
ROOT ul
{
	 OFFSET 0 0 0
	 CHANNELS 3 XPosition YPosition Z Position
	 EndSite
	 {
	 OFFSET 0 -1 0
	 }
}
ROOT ll
{
	 OFFSET 0 0 0
	 CHANNELS 3 XPosition YPosition Z Position
	 EndSite
	 {
	 OFFSET 0 -1 0
	 }
}
ROOT tt
{
	 OFFSET 0 0 0
	 CHANNELS 3 XPosition YPosition Z Position
	 EndSite
	 {
	 OFFSET 0 -1 0
	 }
}
ROOT tb
{
	 OFFSET 0 0 0
	 CHANNELS 3 XPosition YPosition Z Position
	 EndSite
	 {
	 OFFSET 0 -1 0
	 }
}
ROOT td
{
	 OFFSET 0 0 0
	 CHANNELS 3 XPosition YPosition Z Position
	 EndSite
	 {
	 OFFSET 0 -1 0
	 }
}
ROOT v
{
	 OFFSET 0 0 0
	 CHANNELS 3 XPosition YPosition Z Position
	 EndSite
	 {
	 OFFSET 0 -1 0
	 }
}
ROOT bn
{
	 OFFSET 0 0 0
	 CHANNELS 3 XPosition YPosition Z Position
	 EndSite
	 {
	 OFFSET 0 -1 0
	 }
}
MOTION
Frames: 10
Frame Time: 0.002
0.0033439719676971436	1.5945599973201752E-4	0		0.5116508178710938	-2.42305517578125	0		-1.0357431640625	0.11661505126953126	0		-0.6445722045898438	-2.69165966796875	0		1.4896904296875	-0.7009534301757813	0		3.109216796875	-0.028104076385498045	0		4.6187373046875	0.2756278076171875	0		5.7709658203125	0.34439764404296874	0		-0.475194091796875	5.8372451171875	0		
0.004757331848144531	0.002895803928375244	0		0.4578594970703125	-2.41511376953125	0		-1.1122926025390625	0.11756211090087891	0		-0.6336167602539062	-2.69668359375	0		1.49680224609375	-0.6920357666015625	0		3.096719482421875	-0.014849044799804688	0		4.62624853515625	0.2709318542480469	0		5.75914892578125	0.35293154907226565	0		-0.4446239013671875	5.857001953125	0		
0.010261857032775878	0.009605401992797852	0		0.5110718078613281	-2.417080078125	0		-1.10069384765625	0.12877877807617188	0		-0.643415283203125	-2.6835244140625	0		1.4979295654296876	-0.6890402221679688	0		3.114994384765625	-0.033813491821289066	0		4.6348232421875	0.26828842163085936	0		5.7715712890625	0.34726058959960937	0		-0.3100411682128906	5.87778271484375	0		
0.004731352806091309	0.0054327788352966306	0		0.48040386962890624	-2.41726416015625	0		-1.040237060546875	0.11750923156738281	0		-0.6482327880859375	-2.68539892578125	0		1.5300101318359376	-0.6993003540039062	0		3.1026259765625	-0.02042546081542969	0		4.61853369140625	0.2739781188964844	0		5.76335595703125	0.3422528686523437	0		-0.32279229736328124	5.86686181640625	0		
0.0033113839626312254	0.005244987964630127	0		0.5028223266601562	-2.421923828125	0		-1.0416051025390625	0.11780443572998046	0		-0.650896484375	-2.68528466796875	0		1.4764183349609374	-0.6846686401367188	0		3.10611279296875	-0.03009526062011719	0		4.63215576171875	0.263506591796875	0		5.766546875	0.32340609741210935	0		-0.33659307861328125	5.8579765625	0		
-0.001056879997253418	0.002112473964691162	0		0.5004272766113281	-2.4223056640625	0		-1.0428927001953125	0.118095703125	0		-0.6204607543945313	-2.690510986328125	0		1.5176517333984374	-0.697927490234375	0		3.0657939453125	-0.028201574325561522	0		4.620931640625	0.2614295654296875	0		5.75202978515625	0.32087576293945314	0		-0.45349807739257814	5.84720361328125	0		
0.022694740295410156	0.0017000720500946044	0		0.47121673583984375	-2.420353271484375	0		-1.09911083984375	0.11698304748535156	0		-0.6777896728515626	-2.688795654296875	0		1.488143310546875	-0.6963783569335937	0		3.114345458984375	-0.04713521194458008	0		4.6197900390625	0.2594088439941406	0		5.75402978515625	0.3286438903808594	0		-0.30403469848632814	5.87662744140625	0		
0.013511734962463379	-0.0013332560062408448	0		0.47725701904296874	-2.411737060546875	0		-1.03207421875	0.1295105743408203	0		-0.6049564819335937	-2.6895048828125	0		1.4897760009765626	-0.6930880737304688	0		3.101483642578125	-0.021288639068603517	0		4.62587255859375	0.2694747619628906	0		5.75611083984375	0.33848321533203124	0		-0.3029733581542969	5.8766259765625	0		
0.024530614852905273	0.004429677963256836	0		0.4962705993652344	-2.421237548828125	0		-1.1171552734375	0.12375401306152344	0		-0.6568353881835938	-2.6808056640625	0		1.4854410400390625	-0.6976575927734375	0		3.098216552734375	-0.040423748016357425	0		4.6328564453125	0.2626973876953125	0		5.7559296875	0.30721975708007815	0		-0.3312315673828125	5.85697705078125	0		
-0.0024169490337371826	0.004664255142211914	0		0.49254110717773436	-2.423437255859375	0		-1.0471204833984376	0.11918318939208984	0		-0.6246842041015624	-2.686076904296875	0		1.5122467041015626	-0.7005249633789062	0		3.076350341796875	-0.03320786666870117	0		4.622	0.2623035888671875	0		5.7446318359375	0.32335501098632813	0		-0.33035638427734376	5.85701123046875	0		
